<mxfile host="app.diagrams.net" modified="2023-07-24T15:34:59.907Z" agent="Mozilla/5.0 (Macintosh; Intel Mac OS X 10_15_7) AppleWebKit/537.36 (KHTML, like Gecko) Chrome/114.0.0.0 Safari/537.36" version="21.6.5" etag="tjZtEy8s83jSMuHti_rf" type="github">
  <diagram name="Page-1" id="UX7O5pw9tHcZtHRXOqwJ">
    <mxGraphModel>
      <root>
        <mxCell id="0" />
        <mxCell id="1" parent="0" />
      </root>
    </mxGraphModel>
  </diagram>
</mxfile>
